<?xml version="1.0" encoding="utf-8"?>
<!-- Generator: Adobe Illustrator 23.0.0, SVG Export Plug-In . SVG Version: 6.00 Build 0)  -->
<svg version="1.1" id="Layer_1" xmlns="http://www.w3.org/2000/svg" xmlns:xlink="http://www.w3.org/1999/xlink" x="0px" y="0px"
	 viewBox="0 0 512 512" style="enable-background:new 0 0 512 512;" xml:space="preserve">
<style type="text/css">
	.st0{fill:#FFFFFF;}
	.st1{fill:#FF6863;}
</style>
<g>
	<g id="XMLID_1_">
		<g>
			<path class="st0" d="M337.9,156.2c10.4,0,18.8,8.4,18.8,18.8c0,10.3-8.4,18.8-18.8,18.8s-18.8-8.4-18.8-18.8
				C319.1,164.7,327.5,156.2,337.9,156.2z"/>
			<path class="st0" d="M256,177.4c43.7,0,79.3,35.6,79.3,79.3S299.7,336,256,336s-79.3-35.6-79.3-79.3
				C176.7,213,212.3,177.4,256,177.4z M301.8,256.7c0-25.2-20.5-45.8-45.8-45.8s-45.8,20.6-45.8,45.8c0,25.3,20.6,45.8,45.8,45.8
				C281.3,302.5,301.8,281.9,301.8,256.7z"/>
			<path class="st0" d="M410,180.4V333c0,42.8-34.8,77.7-77.7,77.7H179.7c-42.8,0-77.7-34.9-77.7-77.7V180.4
				c0-42.8,34.8-77.7,77.7-77.7h152.6C375.1,102.7,410,137.6,410,180.4z M376.5,333V180.4c0-24.4-19.8-44.2-44.2-44.2H179.7
				c-24.4,0-44.2,19.8-44.2,44.2V333c0,24.4,19.8,44.2,44.2,44.2h152.6C356.7,377.2,376.5,357.4,376.5,333z"/>
			<path class="st1" d="M256,0c141.4,0,256,114.6,256,256S397.4,512,256,512S0,397.4,0,256S114.6,0,256,0z M410,333V180.4
				c0-42.8-34.8-77.7-77.7-77.7H179.7c-42.8,0-77.7,34.9-77.7,77.7V333c0,42.8,34.8,77.7,77.7,77.7h152.6
				C375.1,410.7,410,375.8,410,333z"/>
			<path class="st1" d="M376.5,180.4V333c0,24.4-19.8,44.2-44.2,44.2H179.7c-24.4,0-44.2-19.8-44.2-44.2V180.4
				c0-24.4,19.8-44.2,44.2-44.2h152.6C356.7,136.2,376.5,156,376.5,180.4z M356.6,175c0-10.3-8.4-18.8-18.8-18.8
				s-18.8,8.4-18.8,18.8c0,10.3,8.4,18.8,18.8,18.8S356.6,185.4,356.6,175z M335.3,256.7c0-43.7-35.6-79.3-79.3-79.3
				c-43.7,0-79.3,35.6-79.3,79.3c0,43.7,35.6,79.3,79.3,79.3S335.3,300.4,335.3,256.7z"/>
			<path class="st1" d="M256,210.9c25.3,0,45.8,20.6,45.8,45.8c0,25.3-20.5,45.8-45.8,45.8c-25.3,0-45.8-20.6-45.8-45.8
				C210.2,231.4,230.8,210.9,256,210.9z"/>
		</g>
		<g>
		</g>
	</g>
</g>
</svg>
